<svg width="741" height="474" viewBox="0 0 741 474" fill="none" xmlns="http://www.w3.org/2000/svg">
<path d="M741 284C741 391.083 555.491 528.367 296 451C26 370.5 41.5 73.0001 171 6.00006C412 -30.4999 318 117 445 193.5C696.5 165 708.5 177.5 741 284Z" fill="#FEFAA3"/>
<path d="M666 140.5C666 159.83 644.242 169 610 169C575.758 169 549 153.83 549 134.5C549 115.17 575.758 108 610 108C644.242 108 666 121.17 666 140.5Z" fill="#FEFAA3"/>
<path d="M83 299.5C95.7019 331.893 87.6821 348.351 72 354.5C56.3179 360.649 28.7019 337.393 16 305C3.29815 272.607 12.3179 259.649 28 253.5C43.6821 247.351 70.2981 267.107 83 299.5Z" fill="#FEFAA3"/>
<path fill-rule="evenodd" clip-rule="evenodd" d="M110.308 136.505C111.27 136.967 112.174 137.505 113.019 138.118L117.498 136.54C117.965 136.375 118.482 136.362 118.966 136.503C119.45 136.643 119.874 136.929 120.17 137.315L122.082 139.809C122.378 140.195 122.529 140.659 122.512 141.127C122.495 141.595 122.309 142.041 121.986 142.393L118.884 145.766C119.229 146.705 119.478 147.671 119.63 148.662L124.073 150.525C124.537 150.72 124.921 151.051 125.165 151.467C125.409 151.883 125.499 152.359 125.42 152.821L124.912 155.796C124.834 156.257 124.591 156.677 124.223 156.989C123.855 157.3 123.382 157.485 122.881 157.515L118.071 157.799C117.598 158.684 117.044 159.512 116.407 160.284L118.214 164.495C118.403 164.934 118.43 165.416 118.291 165.863C118.152 166.311 117.856 166.698 117.448 166.965L114.817 168.683C114.409 168.949 113.915 169.078 113.412 169.05C112.908 169.022 112.425 168.839 112.039 168.529L108.337 165.554C107.337 165.852 106.306 166.06 105.245 166.177L103.354 170.268C103.157 170.695 102.811 171.045 102.37 171.262C101.929 171.479 101.42 171.55 100.922 171.465L97.7131 170.918C97.2155 170.833 96.7586 170.596 96.4148 170.245C96.071 169.895 95.8601 169.45 95.8155 168.982L95.3892 164.495C94.4355 164.037 93.528 163.497 92.6786 162.882L88.1993 164.46C87.7323 164.625 87.2157 164.638 86.7316 164.497C86.2475 164.357 85.8237 164.071 85.5273 163.685L83.6148 161.191C83.319 160.805 83.1679 160.341 83.1853 159.873C83.2028 159.405 83.3879 158.959 83.7112 158.607L86.8134 155.234C86.4683 154.29 86.2185 153.321 86.0672 152.338L81.624 150.475C81.1609 150.28 80.7769 149.949 80.5328 149.534C80.2887 149.118 80.1986 148.642 80.2767 148.181L80.7845 145.206C80.8632 144.745 81.1059 144.325 81.4741 144.014C81.8422 143.702 82.3147 143.517 82.8165 143.487L87.6262 143.203C88.0987 142.318 88.6534 141.49 89.2904 140.718L87.4826 136.507C87.2943 136.068 87.2673 135.586 87.4061 135.139C87.5449 134.691 87.8414 134.304 88.2485 134.037L90.8803 132.317C91.2878 132.051 91.7825 131.922 92.2858 131.95C92.7891 131.978 93.2721 132.161 93.6582 132.471L97.3607 135.446C98.3608 135.148 99.3915 134.94 100.453 134.823L102.343 130.732C102.54 130.305 102.886 129.956 103.326 129.739C103.766 129.522 104.276 129.45 104.773 129.534L107.982 130.082C108.48 130.167 108.937 130.403 109.28 130.754C109.624 131.105 109.835 131.55 109.88 132.018L110.308 136.505ZM101.436 158.777C103.804 159.181 106.223 158.696 108.162 157.43C110.101 156.163 111.401 154.218 111.776 152.023C112.15 149.828 111.569 147.563 110.16 145.725C108.75 143.887 106.629 142.627 104.261 142.223C101.893 141.819 99.474 142.304 97.535 143.57C95.596 144.837 94.2962 146.782 93.9216 148.977C93.547 151.172 94.1283 153.437 95.5376 155.275C96.9468 157.113 99.0687 158.373 101.436 158.777Z" fill="#F7B417"/>
<path fill-rule="evenodd" clip-rule="evenodd" d="M337.308 10.5051C338.27 10.9674 339.174 11.5049 340.019 12.1175L344.498 10.5396C344.965 10.3751 345.482 10.3621 345.966 10.5026C346.45 10.6431 346.874 10.929 347.17 11.3149L349.082 13.809C349.378 14.1953 349.529 14.6593 349.512 15.1274C349.495 15.5955 349.309 16.0408 348.986 16.3926L345.884 19.7664C346.229 20.7055 346.478 21.6707 346.63 22.662L351.073 24.5254C351.537 24.7198 351.921 25.0513 352.165 25.4672C352.409 25.8831 352.499 26.3595 352.42 26.8208L351.912 29.7962C351.834 30.2575 351.591 30.6771 351.223 30.9885C350.855 31.3 350.382 31.4852 349.881 31.515L345.071 31.7994C344.598 32.6841 344.044 33.5121 343.407 34.2836L345.214 38.4953C345.403 38.9344 345.43 39.4159 345.291 39.8633C345.152 40.3107 344.856 40.6983 344.448 40.9646L341.817 42.6833C341.409 42.9491 340.915 43.0783 340.412 43.0502C339.908 43.0222 339.425 42.8387 339.039 42.5287L335.337 39.5545C334.337 39.8523 333.306 40.0597 332.245 40.1767L330.354 44.2684C330.157 44.6952 329.811 45.0449 329.37 45.2617C328.929 45.4786 328.42 45.5502 327.922 45.4654L324.713 44.9177C324.216 44.8328 323.759 44.5962 323.415 44.2455C323.071 43.8947 322.86 43.45 322.816 42.9819L322.389 38.4949C321.435 38.0365 320.528 37.4966 319.679 36.8825L315.199 38.4604C314.732 38.6249 314.216 38.6379 313.732 38.4974C313.248 38.3569 312.824 38.071 312.527 37.6851L310.615 35.191C310.319 34.8047 310.168 34.3407 310.185 33.8726C310.203 33.4045 310.388 32.9592 310.711 32.6074L313.813 29.2336C313.468 28.29 313.218 27.3206 313.067 26.338L308.624 24.4746C308.161 24.2803 307.777 23.9492 307.533 23.5337C307.289 23.1183 307.199 22.6423 307.277 22.1813L307.785 19.2059C307.863 18.7446 308.106 18.3249 308.474 18.0135C308.842 17.7021 309.315 17.5168 309.816 17.4871L314.626 17.2027C315.099 16.318 315.653 15.4899 316.29 14.7185L314.483 10.5068C314.294 10.0676 314.267 9.58616 314.406 9.13878C314.545 8.69141 314.841 8.30379 315.249 8.03747L317.88 6.3167C318.288 6.05089 318.783 5.92173 319.286 5.94975C319.789 5.97777 320.272 6.16135 320.658 6.47134L324.361 9.4455C325.361 9.14771 326.391 8.94029 327.453 8.82326L329.343 4.73157C329.54 4.30508 329.886 3.95568 330.326 3.73878C330.766 3.52188 331.276 3.4499 331.773 3.53426L334.982 4.08192C335.48 4.16683 335.937 4.40345 336.28 4.75417C336.624 5.10489 336.835 5.54961 336.88 6.01769L337.308 10.5051ZM328.436 32.7766C330.804 33.1806 333.223 32.6961 335.162 31.4296C337.101 30.1632 338.401 28.2185 338.776 26.0234C339.15 23.8283 338.569 21.5626 337.16 19.7248C335.75 17.8869 333.629 16.6274 331.261 16.2234C328.893 15.8194 326.474 16.3039 324.535 17.5704C322.596 18.8368 321.296 20.7815 320.922 22.9766C320.547 25.1717 321.128 27.4374 322.538 29.2753C323.947 31.1131 326.069 32.3726 328.436 32.7766Z" fill="#F7B417"/>
<path fill-rule="evenodd" clip-rule="evenodd" d="M628.308 47.5051C629.27 47.9674 630.174 48.5049 631.019 49.1175L635.498 47.5396C635.965 47.3751 636.482 47.3621 636.966 47.5026C637.45 47.6431 637.874 47.929 638.17 48.3149L640.082 50.809C640.378 51.1953 640.529 51.6593 640.512 52.1274C640.494 52.5955 640.309 53.0408 639.986 53.3926L636.884 56.7664C637.229 57.7055 637.478 58.6707 637.63 59.662L642.073 61.5254C642.537 61.7198 642.921 62.0513 643.165 62.4672C643.409 62.8831 643.499 63.3595 643.42 63.8208L642.912 66.7962C642.834 67.2575 642.591 67.6771 642.223 67.9885C641.855 68.3 641.382 68.4852 640.88 68.515L636.071 68.7994C635.598 69.6841 635.043 70.5121 634.407 71.2836L636.214 75.4953C636.403 75.9344 636.43 76.4159 636.291 76.8633C636.152 77.3107 635.856 77.6983 635.448 77.9646L632.817 79.6833C632.409 79.9491 631.915 80.0783 631.411 80.0502C630.908 80.0222 630.425 79.8387 630.039 79.5287L626.337 76.5545C625.336 76.8523 624.306 77.0597 623.245 77.1767L621.354 81.2684C621.157 81.6952 620.811 82.0449 620.37 82.2617C619.929 82.4786 619.42 82.5502 618.922 82.4654L615.713 81.9177C615.215 81.8328 614.759 81.5962 614.415 81.2455C614.071 80.8947 613.86 80.45 613.815 79.9819L613.389 75.4949C612.435 75.0365 611.528 74.4966 610.679 73.8825L606.199 75.4604C605.732 75.6249 605.216 75.6379 604.732 75.4974C604.247 75.3569 603.824 75.071 603.527 74.6851L601.615 72.191C601.319 71.8047 601.168 71.3407 601.185 70.8726C601.203 70.4045 601.388 69.9592 601.711 69.6074L604.813 66.2336C604.468 65.29 604.218 64.3206 604.067 63.338L599.624 61.4746C599.161 61.2803 598.777 60.9492 598.533 60.5337C598.289 60.1183 598.199 59.6423 598.277 59.1813L598.784 56.2059C598.863 55.7446 599.106 55.3249 599.474 55.0135C599.842 54.7021 600.315 54.5168 600.816 54.4871L605.626 54.2027C606.099 53.318 606.653 52.4899 607.29 51.7185L605.483 47.5068C605.294 47.0676 605.267 46.5862 605.406 46.1388C605.545 45.6914 605.841 45.3038 606.248 45.0375L608.88 43.3167C609.288 43.0509 609.782 42.9217 610.286 42.9498C610.789 42.9778 611.272 43.1613 611.658 43.4713L615.361 46.4455C616.361 46.1477 617.391 45.9403 618.453 45.8233L620.343 41.7316C620.54 41.3051 620.886 40.9557 621.326 40.7388C621.766 40.5219 622.275 40.4499 622.773 40.5343L625.982 41.0819C626.48 41.1668 626.936 41.4034 627.28 41.7542C627.624 42.1049 627.835 42.5496 627.88 43.0177L628.308 47.5051ZM619.436 69.7766C621.804 70.1806 624.223 69.6961 626.162 68.4296C628.101 67.1632 629.401 65.2185 629.776 63.0234C630.15 60.8283 629.569 58.5626 628.16 56.7248C626.75 54.8869 624.629 53.6274 622.261 53.2234C619.893 52.8194 617.474 53.3039 615.535 54.5704C613.596 55.8368 612.296 57.7815 611.922 59.9766C611.547 62.1717 612.128 64.4374 613.537 66.2753C614.947 68.1131 617.069 69.3726 619.436 69.7766Z" fill="#F7B417"/>
<path fill-rule="evenodd" clip-rule="evenodd" d="M477.329 38.8751C478.893 39.7148 480.357 40.7011 481.72 41.8338L489.175 38.6057C489.952 38.2693 490.804 38.2203 491.596 38.4665C492.387 38.7127 493.072 39.24 493.542 39.9646L496.577 44.6474C497.047 45.3727 497.274 46.2534 497.224 47.1498C497.173 48.0462 496.847 48.9068 496.298 49.5951L491.029 56.195C491.553 57.9756 491.918 59.8107 492.123 61.7003L499.358 65.0583C500.113 65.4087 500.731 66.0251 501.113 66.8094C501.496 67.5937 501.622 68.501 501.471 69.3873L500.495 75.104C500.344 75.9902 499.924 76.8045 499.303 77.4175C498.682 78.0305 497.895 78.407 497.066 78.4873L489.127 79.2559C488.307 80.9706 487.355 82.5809 486.269 84.0867L489.051 92.0607C489.341 92.8921 489.363 93.8121 489.114 94.6745C488.864 95.537 488.357 96.2924 487.674 96.821L483.258 100.232C482.574 100.76 481.752 101.03 480.924 101C480.096 100.97 479.309 100.641 478.687 100.066L472.725 94.5481C471.063 95.1646 469.355 95.6095 467.6 95.8829L464.295 103.8C463.95 104.626 463.362 105.311 462.626 105.746C461.89 106.182 461.047 106.343 460.231 106.203L454.968 105.305C454.152 105.166 453.41 104.735 452.86 104.08C452.31 103.425 451.983 102.584 451.931 101.69L451.438 93.1249C449.888 92.2923 448.418 91.3017 447.047 90.1662L439.592 93.3943C438.814 93.7307 437.962 93.7797 437.171 93.5335C436.38 93.2873 435.695 92.76 435.225 92.0354L432.189 87.3526C431.72 86.6274 431.492 85.7466 431.543 84.8502C431.594 83.9538 431.919 83.0932 432.469 82.4049L437.738 75.805C437.213 74.0158 436.847 72.1726 436.644 70.2997L429.409 66.9417C428.655 66.5915 428.037 65.9759 427.654 65.1924C427.272 64.4089 427.145 63.5024 427.296 62.6167L428.271 56.9C428.422 56.0138 428.842 55.1995 429.463 54.5865C430.084 53.9735 430.871 53.5969 431.7 53.5166L439.639 52.7481C440.459 51.0333 441.412 49.4231 442.497 47.9173L439.715 39.9433C439.425 39.1119 439.403 38.1919 439.652 37.3295C439.902 36.467 440.409 35.7115 441.092 35.183L445.509 31.7678C446.193 31.2402 447.014 30.97 447.842 31.0001C448.671 31.0303 449.458 31.359 450.08 31.9341L456.042 37.4519C457.704 36.8354 459.412 36.3905 461.166 36.1171L464.472 28.2001C464.817 27.3749 465.404 26.6903 466.139 26.2547C466.875 25.8192 467.717 25.6577 468.532 25.7959L473.795 26.6941C474.611 26.8333 475.353 27.2647 475.903 27.9197C476.453 28.5747 476.78 29.4158 476.832 30.3093L477.329 38.8751ZM461.67 81.9018C465.552 82.5643 469.562 81.5244 472.816 79.0108C476.071 76.4971 478.303 72.7157 479.023 68.4983C479.743 64.2808 478.891 59.973 476.654 56.5223C474.417 53.0716 470.98 50.7608 467.097 50.0982C463.214 49.4357 459.205 50.4756 455.95 52.9892C452.696 55.5029 450.463 59.2843 449.744 63.5018C449.024 67.7192 449.876 72.027 452.113 75.4777C454.349 78.9284 457.787 81.2392 461.67 81.9018Z" fill="#F7B417"/>
<path d="M210.385 330.058C208.066 326.382 206.165 322.499 204.681 318.41C203.198 314.237 202.462 310.484 202.476 307.151C202.486 304.485 202.997 301.695 204.009 298.782C205.104 295.786 206.156 293.166 207.165 290.92L248.652 199.083C252.239 198.347 256.281 198.238 260.779 198.755C265.36 199.19 269.69 200.124 273.768 201.557C277.846 202.906 280.839 204.668 282.747 206.842L264.209 248.019C262.275 252.428 259.754 257.918 256.644 264.49C253.535 270.977 250.301 277.465 246.942 283.951C243.584 290.355 240.396 295.634 237.38 299.789L238.125 300.917C241.46 300.513 245.378 300.195 249.879 299.963C254.464 299.731 258.714 299.581 262.631 299.514C266.548 299.362 269.215 299.289 270.632 299.295L301.132 299.415C304.215 299.428 306.549 299.395 308.132 299.318C309.716 299.241 312.049 299.209 315.133 299.221L322.758 299.251C323.082 301.502 323.282 303.753 323.356 306.003C323.514 308.254 323.588 310.462 323.58 312.629C323.57 315.129 323.392 317.962 323.046 321.127C322.701 324.209 322.106 327.207 321.261 330.12L315.011 330.095C311.928 330.083 309.594 330.074 308.011 330.068C306.428 329.978 304.095 329.927 301.011 329.915L265.512 329.775C262.512 329.763 259.595 329.835 256.761 329.991C253.927 330.146 250.927 330.218 247.76 330.205L210.385 330.058ZM265.193 347.274C265.205 344.107 265.258 341.191 265.352 338.525C265.446 335.775 265.5 332.858 265.512 329.775L265.609 305.025C265.613 304.109 265.578 302.317 265.506 299.65C265.433 296.983 265.398 295.149 265.402 294.149L265.441 284.399C265.477 275.316 267.755 268.117 272.276 262.801C276.797 257.486 283.141 254.844 291.307 254.876L299.932 254.91L301.551 256.542L301.45 282.042C301.438 285.125 301.385 288.041 301.291 290.791C301.197 293.457 301.144 296.332 301.132 299.415L301.011 329.915C300.999 332.998 301.029 335.915 301.102 338.666C301.175 341.333 301.205 344.249 301.192 347.416L301.145 359.416C297.893 359.986 294.725 360.349 291.641 360.503C288.64 360.658 285.806 360.73 283.14 360.72C280.473 360.709 277.598 360.615 274.516 360.436C271.517 360.257 268.393 359.87 265.145 359.274L265.193 347.274ZM339.967 280.444C340.021 266.777 341.07 254.323 343.114 243.081C345.242 231.756 350.156 221.858 357.856 213.389C362.625 208.824 368.098 205.096 374.276 202.203C380.454 199.311 388.501 197.884 398.418 197.924C408.501 197.963 416.579 199.454 422.65 202.394C428.722 205.335 434.124 209.106 438.856 213.708C446.489 222.238 451.283 232.174 453.238 243.515C455.277 254.773 456.27 267.236 456.216 280.902C456.163 294.402 455.072 306.856 452.943 318.265C450.899 329.59 446.026 339.487 438.326 347.957C433.558 352.522 428.127 356.25 422.032 359.143C415.937 362.036 407.848 363.462 397.765 363.422C387.848 363.383 379.812 361.893 373.657 358.952C367.502 356.011 362.059 352.24 357.327 347.638C349.694 339.107 344.858 329.172 342.819 317.83C340.864 306.406 339.913 293.943 339.967 280.444ZM378.091 280.594C378.046 292.094 378.425 301.595 379.229 309.099C380.033 316.602 381.344 322.19 383.163 325.864C384.567 329.037 386.599 331.378 389.26 332.888C391.921 334.316 394.793 335.035 397.877 335.047C401.127 335.06 404.046 334.363 406.635 332.957C409.307 331.551 411.316 329.225 412.663 325.981C414.427 322.321 415.741 316.743 416.604 309.246C417.55 301.75 418.046 292.252 418.091 280.752C418.137 269.085 417.716 259.542 416.829 252.122C416.025 244.702 414.755 239.155 413.02 235.481C411.616 232.309 409.625 230.01 407.047 228.583C404.47 227.073 401.556 226.311 398.306 226.298C395.223 226.286 392.345 227.025 389.672 228.514C387 229.92 384.949 232.204 383.52 235.365C381.756 239.025 380.4 244.561 379.454 251.974C378.592 259.387 378.137 268.927 378.091 280.594ZM480.403 331.123C478.084 327.447 476.182 323.565 474.699 319.475C473.215 315.303 472.48 311.55 472.493 308.217C472.503 305.55 473.014 302.76 474.026 299.848C475.121 296.852 476.173 294.231 477.182 291.985L518.67 200.148C522.256 199.412 526.298 199.303 530.796 199.821C535.378 200.256 539.707 201.189 543.785 202.622C547.863 203.972 550.856 205.733 552.764 207.908L534.227 249.085C532.293 253.494 529.771 258.984 526.662 265.555C523.553 272.043 520.319 278.53 516.96 285.017C513.601 291.42 510.414 296.7 507.397 300.854L508.143 301.982C511.478 301.579 515.396 301.261 519.897 301.029C524.481 300.797 528.732 300.647 532.649 300.579C536.566 300.428 539.233 300.355 540.649 300.361L571.149 300.481C574.233 300.493 576.566 300.461 578.15 300.384C579.733 300.306 582.067 300.274 585.15 300.286L592.775 300.316C593.1 302.568 593.299 304.818 593.373 307.069C593.531 309.319 593.606 311.528 593.597 313.695C593.587 316.195 593.41 319.027 593.064 322.193C592.718 325.275 592.123 328.272 591.278 331.186L585.028 331.161C581.945 331.149 579.612 331.14 578.028 331.133C576.445 331.044 574.112 330.993 571.029 330.981L535.529 330.841C532.529 330.829 529.612 330.901 526.778 331.056C523.944 331.212 520.944 331.283 517.777 331.271L480.403 331.123ZM535.21 348.339C535.223 345.173 535.276 342.256 535.37 339.59C535.464 336.84 535.517 333.924 535.529 330.841L535.627 306.091C535.63 305.174 535.596 303.382 535.523 300.715C535.45 298.048 535.416 296.215 535.42 295.215L535.458 285.465C535.494 276.382 537.772 269.182 542.293 263.867C546.815 258.551 553.158 255.91 561.325 255.942L569.95 255.976L571.568 257.607L571.468 283.107C571.456 286.19 571.402 289.107 571.308 291.856C571.214 294.523 571.161 297.398 571.149 300.481L571.029 330.981C571.017 334.064 571.047 336.981 571.119 339.731C571.192 342.398 571.222 345.315 571.21 348.482L571.162 360.481C567.91 361.052 564.742 361.414 561.658 361.569C558.657 361.724 555.824 361.796 553.157 361.785C550.491 361.775 547.616 361.68 544.533 361.501C541.534 361.323 538.41 360.936 535.163 360.339L535.21 348.339Z" fill="#F7B417"/>
</svg>
