<svg width="116" height="116" viewBox="0 0 116 116" fill="none" xmlns="http://www.w3.org/2000/svg">
<path d="M57.7916 0C73.1189 0 87.8185 6.0887 98.6563 16.9268C109.494 27.7648 115.583 42.4644 115.583 57.7917C115.583 73.119 109.494 87.819 98.6563 98.657C87.8185 109.495 73.1189 115.583 57.7916 115.583C42.4643 115.583 27.7648 109.495 16.9268 98.657C6.0887 87.819 0 73.119 0 57.7917C0 42.4644 6.0887 27.7648 16.9268 16.9268C27.7648 6.0887 42.4643 0 57.7916 0ZM57.7916 6.0833C44.0777 6.0833 30.9255 11.5312 21.2283 21.2284C11.5311 30.9255 6.0833 44.0778 6.0833 57.7917C6.0833 71.5056 11.5311 84.658 21.2283 94.355C30.9255 104.052 44.0777 109.5 57.7916 109.5C64.5821 109.5 71.306 108.163 77.5796 105.564C83.8531 102.965 89.5533 99.157 94.3553 94.355C99.1563 89.553 102.965 83.853 105.564 77.5796C108.162 71.306 109.5 64.5821 109.5 57.7917C109.5 44.0778 104.052 30.9255 94.3553 21.2284C84.6578 11.5312 71.5055 6.0833 57.7916 6.0833Z" fill="#F4B300"/>
<path d="M80.9113 59.4914C80.8632 54.8073 79.1305 50.2709 75.9858 46.5965C72.8411 42.9221 68.4631 40.3183 63.541 39.1952C58.619 38.072 53.4324 38.4932 48.7978 40.3924C44.1633 42.2917 40.344 45.5611 37.9413 49.6861C35.5385 53.811 34.6888 58.5571 35.5258 63.1772C36.3628 67.7972 38.8391 72.0289 42.5648 75.206C46.2904 78.3831 51.0539 80.3251 56.1052 80.7263C61.1566 81.1275 66.2088 79.9651 70.4667 77.4221L81.1246 80.6028L77.4838 70.8165C79.7693 67.4197 80.9583 63.4909 80.9113 59.4914Z" fill="#FFFDFD" stroke="black" stroke-width="2" stroke-linecap="round" stroke-linejoin="round"/>
<path d="M45.526 37.1744C47.3959 38.691 51.9873 40.976 54.2227 41.9117C57.1339 43.129 57.3736 43.2285 59.7587 42.0395C61.3497 41.2459 62.4162 40.5233 64.2201 40.88C66.024 41.2366 69.899 43.0047 73.2408 45.6866C76.5827 48.3685 78.7585 51.4623 79.0867 52.8164C79.4149 54.1706 78.3329 54.8845 77.1379 55.9912C75.4538 57.5513 75.5634 57.8263 76.8414 60.0693C77.838 61.814 80.611 65.3605 82.5036 66.8598C84.528 68.4699 84.5402 68.1995 85.9078 67.837C87.0215 67.5377 88.0938 67.163 89.1113 66.7175C91.1043 65.8347 92.2223 65.0807 93.033 63.9139C93.8437 62.7472 94.3104 59.9567 90.6397 54.5557C86.9691 49.1546 84.3487 46.3642 78.8631 41.9602C73.3775 37.5561 69.1156 35.1376 62.8561 32.2456C55.1126 28.6727 52.0569 29.1931 50.4098 29.6893C48.7627 30.1855 47.6461 30.9368 46.2832 32.3287C45.594 33.0386 44.996 33.7952 44.4966 34.5889C43.8899 35.5613 43.5244 35.5472 45.526 37.1744Z" fill="white" stroke="black" stroke-width="2" stroke-miterlimit="10"/>
<path d="M77 64C77 64.3581 77.4945 64.3557 77.6894 64.5808C77.7486 64.6491 77.8331 64.7087 77.9012 64.7785C77.9874 64.867 78.1388 64.9078 78.2481 64.9658C78.3562 65.0232 78.4314 65.1293 78.541 65.1698C78.7153 65.2343 78.9968 65.5254 79.1267 65.6673C79.2845 65.8396 79.5006 65.9484 79.6607 66.119C79.9968 66.4774 80.4498 66.7954 80.7308 67.1848" stroke="white" stroke-linecap="round"/>
<path d="M47 40C47.234 40.1965 47.5325 40.3723 47.7995 40.5281C47.9417 40.6111 48.0935 40.6418 48.237 40.7186C48.3948 40.803 48.5464 40.9151 48.6895 41.019C48.8634 41.1453 49.0329 41.2537 49.2175 41.3675C49.4415 41.5054 49.6536 41.6635 49.8964 41.7779C50.1877 41.9151 50.416 42.1198 50.6942 42.2843C50.8941 42.4025 51.0933 42.5486 51.2809 42.6823C51.337 42.7223 51.4002 42.7583 51.4636 42.7876C51.5196 42.8135 51.5318 42.8705 51.5859 42.8991C51.6539 42.935 51.6973 43.0063 51.7669 43.0385" stroke="white" stroke-linecap="round"/>
</svg>

