<svg width="57" height="19" viewBox="0 0 57 19" fill="none" xmlns="http://www.w3.org/2000/svg">
    <rect width="57" height="19" fill="white"/>
    <path d="M53 8.36364C53 11.8955 50.2267 15.1982 46.5 16C42.7733 15.1982 40 11.8955 40 8.36364V4.54545L46.5 2L53 4.54545V8.36364ZM46.5 14.7273C49.2083 14.0909 51.5556 11.2527 51.5556 8.50364V5.37273L46.5 3.38727L41.4444 5.37273V8.50364C41.4444 11.2527 43.7917 14.0909 46.5 14.7273Z" fill="#F49938"/>
    <ellipse cx="40.5" cy="10" rx="7.5" ry="6" fill="white"/>
    <path d="M8.18945 6.60547L5.64062 14H4.09961L7.31055 5.46875H8.29492L8.18945 6.60547ZM10.3223 14L7.76758 6.60547L7.65625 5.46875H8.64648L11.8691 14H10.3223ZM10.1992 10.8359V12.002H5.55859V10.8359H10.1992ZM12.8242 5.46875H15.8418C16.4902 5.46875 17.043 5.56641 17.5 5.76172C17.957 5.95703 18.3066 6.24609 18.5488 6.62891C18.7949 7.00781 18.918 7.47656 18.918 8.03516C18.918 8.46094 18.8398 8.83594 18.6836 9.16016C18.5273 9.48438 18.3066 9.75781 18.0215 9.98047C17.7363 10.1992 17.3965 10.3691 17.002 10.4902L16.5566 10.707H13.8438L13.832 9.54102H15.8652C16.2168 9.54102 16.5098 9.47852 16.7441 9.35352C16.9785 9.22852 17.1543 9.05859 17.2715 8.84375C17.3926 8.625 17.4531 8.37891 17.4531 8.10547C17.4531 7.80859 17.3945 7.55078 17.2773 7.33203C17.1641 7.10938 16.9883 6.93945 16.75 6.82227C16.5117 6.70117 16.209 6.64062 15.8418 6.64062H14.2949V14H12.8242V5.46875ZM17.6934 14L15.6895 10.168L17.2305 10.1621L19.2637 13.9238V14H17.6934ZM20.9805 5.46875H22.293L24.7598 12.0488L27.2207 5.46875H28.5332L25.2754 14H24.2324L20.9805 5.46875ZM20.3828 5.46875H21.6309L21.8477 11.1641V14H20.3828V5.46875ZM27.8828 5.46875H29.1367V14H27.666V11.1641L27.8828 5.46875ZM36.2266 12.834V14H31.9434V12.834H36.2266ZM32.3535 5.46875V14H30.8828V5.46875H32.3535ZM42.0156 11.2227H43.4805C43.4336 11.7812 43.2773 12.2793 43.0117 12.7168C42.7461 13.1504 42.373 13.4922 41.8926 13.7422C41.4121 13.9922 40.8281 14.1172 40.1406 14.1172C39.6133 14.1172 39.1387 14.0234 38.7168 13.8359C38.2949 13.6445 37.9336 13.375 37.6328 13.0273C37.332 12.6758 37.1016 12.252 36.9414 11.7559C36.7852 11.2598 36.707 10.7051 36.707 10.0918V9.38281C36.707 8.76953 36.7871 8.21484 36.9473 7.71875C37.1113 7.22266 37.3457 6.79883 37.6504 6.44727C37.9551 6.0918 38.3203 5.82031 38.7461 5.63281C39.1758 5.44531 39.6582 5.35156 40.1934 5.35156C40.873 5.35156 41.4473 5.47656 41.916 5.72656C42.3848 5.97656 42.748 6.32227 43.0059 6.76367C43.2676 7.20508 43.4277 7.71094 43.4863 8.28125H42.0215C41.9824 7.91406 41.8965 7.59961 41.7637 7.33789C41.6348 7.07617 41.4434 6.87695 41.1895 6.74023C40.9355 6.59961 40.6035 6.5293 40.1934 6.5293C39.8574 6.5293 39.5645 6.5918 39.3145 6.7168C39.0645 6.8418 38.8555 7.02539 38.6875 7.26758C38.5195 7.50977 38.3926 7.80859 38.3066 8.16406C38.2246 8.51562 38.1836 8.91797 38.1836 9.37109V10.0918C38.1836 10.5215 38.2207 10.9121 38.2949 11.2637C38.373 11.6113 38.4902 11.9102 38.6465 12.1602C38.8066 12.4102 39.0098 12.6035 39.2559 12.7402C39.502 12.877 39.7969 12.9453 40.1406 12.9453C40.5586 12.9453 40.8965 12.8789 41.1543 12.7461C41.416 12.6133 41.6133 12.4199 41.7461 12.166C41.8828 11.9082 41.9727 11.5938 42.0156 11.2227Z" fill="#F49938"/>
    </svg>
    