<svg width="116" height="116" viewBox="0 0 116 116" fill="none" xmlns="http://www.w3.org/2000/svg">
<path d="M57.9583 0.25C73.2856 0.25 87.9852 6.3387 98.823 17.1768C109.661 28.0148 115.75 42.7144 115.75 58.0417C115.75 73.369 109.661 88.069 98.823 98.907C87.9852 109.745 73.2856 115.833 57.9583 115.833C42.631 115.833 27.9315 109.745 17.0935 98.907C6.25539 88.069 0.166687 73.369 0.166687 58.0417C0.166687 42.7144 6.25539 28.0148 17.0935 17.1768C27.9315 6.3387 42.631 0.25 57.9583 0.25ZM57.9583 6.3333C44.2444 6.3333 31.0922 11.7812 21.395 21.4784C11.6978 31.1755 6.24999 44.3278 6.24999 58.0417C6.24999 71.7556 11.6978 84.908 21.395 94.605C31.0922 104.302 44.2444 109.75 57.9583 109.75C64.7488 109.75 71.4727 108.413 77.7463 105.814C84.0198 103.215 89.72 99.407 94.522 94.605C99.323 89.803 103.132 84.103 105.731 77.8296C108.329 71.556 109.667 64.8321 109.667 58.0417C109.667 44.3278 104.219 31.1755 94.522 21.4784C84.8245 11.7812 71.6722 6.3333 57.9583 6.3333Z" fill="#F4B300"/>
<path d="M31 30.1215L57.5133 20.5814L84 30.1215V49.6845C83.999 59.7103 81.4396 69.4815 76.6843 77.6144C71.9291 85.7473 65.219 91.8297 57.5044 95C49.787 91.831 43.0741 85.7481 38.3171 77.6132C33.5601 69.4784 31.0001 59.7041 31 49.6755V30.1215Z" stroke="black" stroke-width="2" stroke-linejoin="round"/>
<path d="M44.25 55.068L54.5556 67.7736L72.2222 45.9926" stroke="black" stroke-width="7" stroke-linecap="round" stroke-linejoin="round"/>
</svg>
