<svg width="146" height="146" viewBox="0 0 146 146" fill="none" xmlns="http://www.w3.org/2000/svg">
    <path d="M71.2083 40.75C80.2368 40.75 88.8954 44.3365 95.2794 50.7206C101.663 57.1046 105.25 65.7633 105.25 74.7917C105.25 83.8201 101.663 92.4787 95.2794 98.8628C88.8954 105.247 80.2368 108.833 71.2083 108.833C62.1799 108.833 53.5213 105.247 47.1372 98.8628C40.7532 92.4787 37.1667 83.8201 37.1667 74.7917C37.1667 65.7633 40.7532 57.1046 47.1372 50.7206C53.5213 44.3365 62.1799 40.75 71.2083 40.75ZM71.2083 44.3333C63.1303 44.3333 55.3831 47.5423 49.671 53.2544C43.959 58.9664 40.75 66.7136 40.75 74.7917C40.75 82.8697 43.959 90.6169 49.671 96.329C55.3831 102.041 63.1303 105.25 71.2083 105.25C75.2082 105.25 79.1689 104.462 82.8642 102.931C86.5596 101.401 89.9173 99.1573 92.7456 96.329C95.574 93.5006 97.8175 90.1429 99.3482 86.4476C100.879 82.7522 101.667 78.7915 101.667 74.7917C101.667 66.7136 98.4577 58.9664 92.7456 53.2544C87.0336 47.5423 79.2864 44.3333 71.2083 44.3333Z" fill="#F4B300"/>
    <path d="M102 75C102 92.1208 88.3447 106 71.5 106C54.6553 106 41 92.1208 41 75C41 57.8792 54.6553 44 71.5 44C88.3447 44 102 57.8792 102 75Z" fill="#EAE8E8"/>
    <path d="M69.9583 18.25C85.2856 18.25 99.9852 24.3387 110.823 35.1768C121.661 46.0148 127.75 60.7144 127.75 76.0417C127.75 91.369 121.661 106.069 110.823 116.907C99.9852 127.745 85.2856 133.833 69.9583 133.833C54.631 133.833 39.9315 127.745 29.0935 116.907C18.2554 106.069 12.1667 91.369 12.1667 76.0417C12.1667 60.7144 18.2554 46.0148 29.0935 35.1768C39.9315 24.3387 54.631 18.25 69.9583 18.25ZM69.9583 24.3333C56.2444 24.3333 43.0922 29.7812 33.395 39.4784C23.6978 49.1755 18.25 62.3278 18.25 76.0417C18.25 89.7556 23.6978 102.908 33.395 112.605C43.0922 122.302 56.2444 127.75 69.9583 127.75C76.7488 127.75 83.4727 126.413 89.7463 123.814C96.0198 121.215 101.72 117.407 106.522 112.605C111.323 107.803 115.132 102.103 117.731 95.8296C120.329 89.556 121.667 82.8321 121.667 76.0417C121.667 62.3278 116.219 49.1755 106.522 39.4784C96.8245 29.7812 83.6722 24.3333 69.9583 24.3333Z" fill="#F4B300"/>
    <path fill-rule="evenodd" clip-rule="evenodd" d="M73 67V67.29C75.892 68.15 78 70.829 78 74V81H79V83H63V81H64V74C63.9996 72.4922 64.4861 71.0246 65.387 69.8156C66.2879 68.6066 67.5551 67.7208 69 67.29V67C69 66.4696 69.2107 65.9609 69.5858 65.5858C69.9609 65.2107 70.4696 65 71 65C71.5304 65 72.0391 65.2107 72.4142 65.5858C72.7893 65.9609 73 66.4696 73 67ZM66 81H76V74C76 72.6739 75.4732 71.4021 74.5355 70.4645C73.5979 69.5268 72.3261 69 71 69C69.6739 69 68.4021 69.5268 67.4645 70.4645C66.5268 71.4021 66 72.6739 66 74V81ZM73 85V84H69V85C69 85.5304 69.2107 86.0391 69.5858 86.4142C69.9609 86.7893 70.4696 87 71 87C71.5304 87 72.0391 86.7893 72.4142 86.4142C72.7893 86.0391 73 85.5304 73 85Z" fill="black"/>
    </svg>