<svg width="116" height="116" viewBox="0 0 116 116" fill="none" xmlns="http://www.w3.org/2000/svg">
<path d="M57.7916 0C73.1189 0 87.8185 6.0887 98.6563 16.9268C109.494 27.7648 115.583 42.4644 115.583 57.7917C115.583 73.119 109.494 87.819 98.6563 98.657C87.8185 109.495 73.1189 115.583 57.7916 115.583C42.4643 115.583 27.7648 109.495 16.9268 98.657C6.0887 87.819 0 73.119 0 57.7917C0 42.4644 6.0887 27.7648 16.9268 16.9268C27.7648 6.0887 42.4643 0 57.7916 0ZM57.7916 6.0833C44.0777 6.0833 30.9255 11.5312 21.2283 21.2284C11.5311 30.9255 6.0833 44.0778 6.0833 57.7917C6.0833 71.5056 11.5311 84.658 21.2283 94.355C30.9255 104.052 44.0777 109.5 57.7916 109.5C64.5821 109.5 71.306 108.163 77.5796 105.564C83.8531 102.965 89.5533 99.157 94.3553 94.355C99.1563 89.553 102.965 83.853 105.564 77.5796C108.162 71.306 109.5 64.5821 109.5 57.7917C109.5 44.0778 104.052 30.9255 94.3553 21.2284C84.6578 11.5312 71.5055 6.0833 57.7916 6.0833Z" fill="#F4B300"/>
<path d="M95.1683 51.9465C95.252 51.6923 95.3509 51.4445 95.422 51.1859L95.4575 51.0308C96.1832 48.5461 96.1808 45.9482 95.4505 43.4645C94.7203 40.9808 93.2845 38.687 91.2687 36.7836C89.4116 34.6608 86.9909 32.9402 84.2033 31.7615C81.4158 30.5829 78.34 29.9795 75.2262 30.0005H75.0943C74.8406 30.0005 74.5564 30.0156 74.2875 30.0221H73.9805C68.6187 30.2764 63.2892 30.8917 58.042 31.8622L46.6832 30.3216H46.5944C41.1843 29.5269 35.6166 30.2851 30.7701 32.4763C28.0412 33.8757 25.6968 35.7551 23.8944 37.9881L23.7904 38.1067L23.727 38.1821C21.3453 41.1827 20.0501 44.7099 20.0014 48.3284C19.9527 51.9469 21.1526 55.4983 23.453 58.5443C23.4048 58.6176 23.3769 58.6995 23.3312 58.7749C23.1115 59.1486 22.9241 59.5353 22.7705 59.932C22.6893 60.1475 22.6284 60.3759 22.5701 60.6C22.5227 60.7824 22.4821 60.9648 22.4483 61.1473C22.4153 61.3754 22.3967 61.6048 22.3925 61.8346C22.3925 62.0199 22.3671 62.2009 22.3772 62.3841C22.3941 62.6254 22.4263 62.8653 22.4736 63.1038C22.5041 63.274 22.5193 63.4442 22.565 63.6123C22.6428 63.878 22.7409 64.138 22.8593 64.3923C22.9176 64.528 22.9557 64.6681 23.0267 64.8017C23.2348 65.1967 23.4885 65.5688 23.7879 65.9179C24.9361 67.3135 26.6298 68.3182 28.5679 68.7535C28.496 69.6723 28.6762 70.5927 29.0945 71.4422C29.5128 72.2918 30.1576 73.0472 30.9782 73.6491C32.4322 74.7307 34.2153 75.443 36.1235 75.7047C36.5168 76.7885 37.2069 77.7775 38.1355 78.592C39.4026 79.7583 41.1147 80.5063 42.9688 80.7037C43.4103 81.9814 44.2475 83.1364 45.3943 84.0435C46.8075 85.2243 48.7002 85.8966 50.6818 85.9181C52.1386 85.9096 53.5692 85.5879 54.8402 84.983C56.7278 85.9009 58.9402 86.2112 61.0765 85.8578C62.1979 85.684 63.2606 85.3025 64.1889 84.7406C65.1172 84.1786 65.8884 83.4499 66.4476 82.6063C66.5009 82.5352 66.5314 82.4727 66.5796 82.4016C68.7362 82.7765 70.9816 82.4469 72.8667 81.4794C74.5244 80.6845 75.7865 79.406 76.4187 77.881C78.6869 77.9068 80.8841 77.213 82.5764 75.9309C83.5028 75.242 84.2223 74.3753 84.675 73.4028C85.1278 72.4303 85.3007 71.3801 85.1795 70.3394C85.1795 70.279 85.1617 70.2316 85.1566 70.1735C86.4808 69.8365 87.6719 69.1996 88.6021 68.3312C89.8047 67.2542 90.5789 65.8838 90.8156 64.4132C91.0523 62.9427 90.7396 61.4461 89.9214 60.1345C92.2032 57.8967 93.9292 55.2905 94.9957 52.4723C95.0566 52.3064 95.1074 52.1254 95.1683 51.9465ZM90.8247 48.2835C90.6974 49.3668 90.4171 50.4331 89.9899 51.4596L89.9087 51.675C89.0649 53.5916 87.8488 55.3746 86.3111 56.9498C78.352 51.0502 66.7749 42.4398 65.8235 41.6684C64.7244 40.7753 63.2649 40.2727 61.7438 40.2635C61.2719 40.2588 60.802 40.3163 60.3509 40.4338C58.7423 40.8647 54.7894 41.9421 51.3389 43.0302C50.0196 43.4461 48.5125 42.3838 48.0533 41.4788C47.7488 40.9358 47.6981 40.3153 47.9061 39.7421C48.3197 39.1065 49.0148 38.6346 49.8369 38.432C57.6417 36.1022 65.7961 34.7238 74.0566 34.338H74.3636C74.6452 34.338 74.9243 34.3208 75.1831 34.3165C77.0779 34.2912 78.959 34.594 80.7115 35.2064C83.3116 36.2098 85.5936 37.7238 87.369 39.6236C88.959 41.1472 90.0692 42.9877 90.5963 44.9738L90.6191 45.0729C90.7435 45.6031 90.8207 46.1404 90.85 46.6804C90.8576 46.8549 90.8703 47.0747 90.8703 47.2686C90.8703 47.581 90.8703 47.8913 90.8272 48.1994L90.8247 48.2835ZM27.5099 62.6319C27.4947 62.5371 27.4888 62.4401 27.4921 62.341C27.4647 62.1334 27.4647 61.9238 27.4921 61.7161C27.5223 61.5942 27.5587 61.4734 27.6012 61.3541C27.6537 61.1616 27.7264 60.9756 27.8194 60.796C27.904 60.6668 27.9996 60.5432 28.1061 60.4254C28.2584 60.2128 28.4402 60.0225 28.6516 59.8544L28.6668 59.8436L33.4392 56.4068C33.7563 56.1995 34.1184 56.0472 34.5048 55.9588C34.8913 55.8704 35.2944 55.8476 35.6912 55.8916C36.0881 55.9356 36.4708 56.0456 36.8175 56.2154C37.1642 56.3852 37.4681 56.6113 37.7118 56.8809C37.8905 57.101 38.0065 57.3535 38.0505 57.6182C38.0946 57.883 38.0655 58.1529 37.9655 58.4064L30.4809 64.5992C29.9643 64.6066 29.4543 64.5004 29.0003 64.2908C28.5464 64.0813 28.1641 63.7755 27.8905 63.4033C27.6991 63.1727 27.5692 62.9095 27.5099 62.6319ZM33.8934 67.7925L42.1062 60.9964L42.0681 60.9641C42.5309 60.7705 43.0522 60.7014 43.5625 60.7659C44.2145 60.9167 44.8032 61.227 45.2522 61.6579C45.6988 61.9812 45.9982 62.425 46.0996 62.9163C46.1374 63.414 46.009 63.9107 45.7292 64.3492L45.6633 64.5324L37.3642 71.3995C36.7819 71.4214 36.2008 71.3365 35.6606 71.1505C35.1203 70.9646 34.6336 70.6821 34.2334 70.3221C33.9047 69.9693 33.6987 69.5455 33.6386 69.0985C33.5785 68.6515 33.6668 68.1991 33.8934 67.7925ZM40.9594 74.4398L49.535 67.3529C50.0804 67.4456 50.5803 67.6826 50.9608 68.0295C51.4868 68.4206 51.8528 68.9435 52.0061 69.5227C52.0449 69.7719 52.032 70.025 51.9681 70.2704L44.552 76.4007C44.0572 76.4783 43.5473 76.4478 43.0702 76.3121C42.5932 76.1764 42.1645 75.94 41.8245 75.625C41.4281 75.2948 41.1313 74.8883 40.9594 74.4398ZM48.9184 80.9299C48.4585 80.5866 48.0959 80.1594 47.8579 79.6802L54.863 73.8904C55.3628 74.0304 55.8195 74.261 56.2026 74.5648C56.5603 74.8075 56.8303 75.1308 56.9815 75.4978C57.0677 75.7695 57.0677 76.0557 56.9815 76.3274C56.6659 77.1971 56.1377 78.0004 55.4313 78.6847L53.5132 80.5809H53.5284C53.465 80.6153 53.394 80.6304 53.3356 80.6692C52.6204 81.2238 51.6998 81.5492 50.7325 81.5893C50.0496 81.5793 49.3984 81.3426 48.9184 80.9299ZM60.2697 81.5914C59.8942 81.6417 59.517 81.6561 59.1381 81.6345L59.3259 81.4492L59.3867 81.3867L59.3893 81.3889C60.1575 80.5812 60.8083 79.6978 61.3277 78.7579L62.4491 79.7664C62.3561 79.9703 62.2461 80.1664 62.1193 80.3546C61.9386 80.6645 61.6788 80.9364 61.3588 81.1503C61.0389 81.3642 60.6668 81.5149 60.2697 81.5914ZM76.5075 73.565L71.9939 69.318C71.6063 68.9329 71.0712 68.6762 70.4827 68.5931C69.8943 68.5101 69.2902 68.6059 68.7767 68.8638C68.2633 69.1218 67.8734 69.5252 67.6757 70.0032C67.478 70.4812 67.4852 71.0031 67.6959 71.4771C67.8134 71.7458 67.9928 71.992 68.2237 72.2011L71.867 75.6487C71.8416 75.8699 71.7884 76.0854 71.7072 76.2951C71.4956 76.9053 71.0136 77.4221 70.3625 77.7366C69.5693 78.1785 68.6067 78.3451 67.6731 78.202L64.6285 75.4569C64.3003 75.1626 63.8803 74.9539 63.4174 74.855C62.9546 74.7562 62.4683 74.7714 62.0152 74.8988C61.974 74.6899 61.9206 74.4827 61.8554 74.2782C61.436 73.1525 60.657 72.1477 59.6049 71.3758C58.8684 70.8037 58.0235 70.3411 57.1058 70.0076C57.1201 69.6067 57.0903 69.2057 57.017 68.8095C56.6894 67.3424 55.8214 66.0015 54.5382 64.9805C53.6053 64.1781 52.4517 63.5856 51.1816 63.2568C51.1951 62.9695 51.1824 62.6822 51.1435 62.3949C50.9058 60.9438 50.089 59.6059 48.8296 58.6047C47.6825 57.5845 46.2086 56.8721 44.59 56.5555C44.0395 56.4652 43.478 56.4326 42.9181 56.4586C42.7194 55.658 42.3167 54.9042 41.7383 54.2499C41.0869 53.5316 40.2751 52.9293 39.3494 52.4778C38.4236 52.0262 37.4021 51.7341 36.3432 51.6182C35.2844 51.5023 34.209 51.5649 33.1787 51.8024C32.1484 52.0399 31.1834 52.4477 30.3388 53.0024L30.25 53.0627L27.1166 55.3036C25.6468 53.0315 24.9435 50.4591 25.0841 47.8694C25.2246 45.2797 26.2036 42.7732 27.9133 40.6255L27.9666 40.5609C29.3562 38.8021 31.1783 37.3201 33.3073 36.2169C37.1915 34.4986 41.6394 33.9292 45.9474 34.5987L47.1247 34.7582C45.3859 35.4245 43.9969 36.6111 43.2225 38.0916C42.8483 38.9041 42.6703 39.7722 42.699 40.6443C42.7278 41.5164 42.9628 42.3747 43.39 43.1681C44.15 44.7293 45.5673 45.9941 47.3658 46.7159C49.1642 47.4378 51.2147 47.5649 53.1174 47.0725C56.4665 46.0189 60.3077 44.9609 61.7438 44.5752C61.858 44.572 61.9715 44.5907 62.0761 44.6298C62.1806 44.669 62.2734 44.7276 62.3476 44.8014C63.5883 45.7926 78.5651 56.9261 84.8217 61.5567L85.3292 61.9251C85.7232 62.4671 85.8916 63.1057 85.8074 63.7386C85.7232 64.3715 85.3913 64.9621 84.8649 65.4158C84.5033 65.7467 84.0285 65.9728 83.5075 66.0622L79.1106 62.2763C78.6321 61.8895 77.9953 61.6757 77.3346 61.68C76.6739 61.6843 76.0411 61.9065 75.5697 62.2996C75.0982 62.6927 74.8251 63.226 74.8079 63.7869C74.7906 64.3478 75.0307 64.8925 75.4774 65.3059L79.6789 68.9216C79.6958 68.9862 79.7161 69.0501 79.7398 69.1133L79.7703 69.1801C79.9599 69.6403 80.0751 70.1201 80.1128 70.6066C80.1834 70.976 80.1461 71.3545 80.0041 71.7088C79.8621 72.0632 79.6197 72.3824 79.2984 72.6385C78.5397 73.2418 77.5376 73.5736 76.4999 73.565H76.5075Z" fill="black"/>
</svg>
