<svg width="116" height="116" viewBox="0 0 116 116" fill="none" xmlns="http://www.w3.org/2000/svg">
    <path d="M57.5064 83.946C72.6811 83.946 84.9827 72.4173 84.9827 58.196C84.9827 43.9746 72.6811 32.446 57.5064 32.446C42.3317 32.446 30.0301 43.9746 30.0301 58.196C30.0301 72.4173 42.3317 83.946 57.5064 83.946Z" fill="#EAE8E8" stroke="black" stroke-width="2"/>
    <path d="M37.8211 37.6916L25.6918 25.4865M77.1917 37.6916L89.3211 25.4865M89.3211 89.5135L77.1917 77.3083M25.6918 89.5135L37.8211 77.3083" stroke="black" stroke-width="3" stroke-linecap="round"/>
    <path d="M57.5064 103.432C83.8625 103.432 105.228 82.8678 105.228 57.5C105.228 32.1322 83.8625 11.5676 57.5064 11.5676C31.1503 11.5676 9.78448 32.1322 9.78448 57.5C9.78448 82.8678 31.1503 103.432 57.5064 103.432Z" stroke="black"/>
    <path d="M57.5064 103.432V109" stroke="black"/>
    <line y1="-0.5" x2="5.7844" y2="-0.5" transform="matrix(-0.999874 -0.0158612 0.0171208 -0.999853 111 55.012)" stroke="black"/>
    <line y1="-0.5" x2="5.7844" y2="-0.5" transform="matrix(-0.999874 -0.0158612 0.0171208 -0.999853 9.78369 54.808)" stroke="black"/>
    <path d="M57.5064 6V11.5676" stroke="black"/>
    <path d="M57.7916 0C73.1189 0 87.8185 6.0887 98.6563 16.9268C109.494 27.7648 115.583 42.4644 115.583 57.7917C115.583 73.119 109.494 87.819 98.6563 98.657C87.8185 109.495 73.1189 115.583 57.7916 115.583C42.4643 115.583 27.7648 109.495 16.9268 98.657C6.0887 87.819 0 73.119 0 57.7917C0 42.4644 6.0887 27.7648 16.9268 16.9268C27.7648 6.0887 42.4643 0 57.7916 0ZM57.7916 6.0833C44.0777 6.0833 30.9255 11.5312 21.2283 21.2284C11.5311 30.9255 6.0833 44.0778 6.0833 57.7917C6.0833 71.5056 11.5311 84.658 21.2283 94.355C30.9255 104.052 44.0777 109.5 57.7916 109.5C64.5821 109.5 71.306 108.163 77.5796 105.564C83.8531 102.965 89.5533 99.157 94.3553 94.355C99.1563 89.553 102.965 83.853 105.564 77.5796C108.162 71.306 109.5 64.5821 109.5 57.7917C109.5 44.0778 104.052 30.9255 94.3553 21.2284C84.6578 11.5312 71.5055 6.0833 57.7916 6.0833Z" fill="#F4B300"/>
    </svg>
    