<svg width="146" height="146" viewBox="0 0 146 146" fill="none" xmlns="http://www.w3.org/2000/svg">
    <path d="M71.2083 40.75C80.2368 40.75 88.8954 44.3365 95.2794 50.7206C101.663 57.1046 105.25 65.7633 105.25 74.7917C105.25 83.8201 101.663 92.4787 95.2794 98.8628C88.8954 105.247 80.2368 108.833 71.2083 108.833C62.1799 108.833 53.5213 105.247 47.1372 98.8628C40.7532 92.4787 37.1667 83.8201 37.1667 74.7917C37.1667 65.7633 40.7532 57.1046 47.1372 50.7206C53.5213 44.3365 62.1799 40.75 71.2083 40.75ZM71.2083 44.3333C63.1303 44.3333 55.3831 47.5423 49.671 53.2544C43.959 58.9664 40.75 66.7136 40.75 74.7917C40.75 82.8697 43.959 90.6169 49.671 96.329C55.3831 102.041 63.1303 105.25 71.2083 105.25C75.2082 105.25 79.1689 104.462 82.8642 102.931C86.5596 101.401 89.9173 99.1573 92.7456 96.329C95.574 93.5006 97.8175 90.1429 99.3482 86.4476C100.879 82.7522 101.667 78.7915 101.667 74.7917C101.667 66.7136 98.4577 58.9664 92.7456 53.2544C87.0336 47.5423 79.2864 44.3333 71.2083 44.3333Z" fill="#F4B300"/>
    <path d="M102 75C102 92.1208 88.3447 106 71.5 106C54.6553 106 41 92.1208 41 75C41 57.8792 54.6553 44 71.5 44C88.3447 44 102 57.8792 102 75Z" fill="#EAE8E8"/>
    <path d="M69.9583 18.25C85.2856 18.25 99.9852 24.3387 110.823 35.1768C121.661 46.0148 127.75 60.7144 127.75 76.0417C127.75 91.369 121.661 106.069 110.823 116.907C99.9852 127.745 85.2856 133.833 69.9583 133.833C54.631 133.833 39.9315 127.745 29.0935 116.907C18.2554 106.069 12.1667 91.369 12.1667 76.0417C12.1667 60.7144 18.2554 46.0148 29.0935 35.1768C39.9315 24.3387 54.631 18.25 69.9583 18.25ZM69.9583 24.3333C56.2444 24.3333 43.0922 29.7812 33.395 39.4784C23.6978 49.1755 18.25 62.3278 18.25 76.0417C18.25 89.7556 23.6978 102.908 33.395 112.605C43.0922 122.302 56.2444 127.75 69.9583 127.75C76.7488 127.75 83.4727 126.413 89.7463 123.814C96.0198 121.215 101.72 117.407 106.522 112.605C111.323 107.803 115.132 102.103 117.731 95.8296C120.329 89.556 121.667 82.8321 121.667 76.0417C121.667 62.3278 116.219 49.1755 106.522 39.4784C96.8245 29.7812 83.6722 24.3333 69.9583 24.3333Z" fill="#F4B300"/>
    <path d="M71.0186 37.5C71.0186 37.5 71.0235 37.502 71.0283 37.5039C71.0389 37.5081 71.0586 37.5182 71.085 37.54C71.1397 37.5854 71.2132 37.6717 71.2861 37.8174C71.4336 38.112 71.5303 38.5468 71.5303 39.0264V111.974C71.5303 112.453 71.4336 112.888 71.2861 113.183C71.2132 113.328 71.1397 113.415 71.085 113.46C71.0586 113.482 71.0389 113.492 71.0283 113.496C71.0235 113.498 71.0186 113.5 71.0186 113.5H71.0117C71.0117 113.5 71.0061 113.498 71.001 113.496C70.9903 113.492 70.9714 113.481 70.9453 113.46C70.8906 113.415 70.8172 113.328 70.7441 113.183C70.5966 112.888 70.5 112.453 70.5 111.974V39.0264C70.5 38.5467 70.5966 38.112 70.7441 37.8174C70.8172 37.6716 70.8906 37.5854 70.9453 37.54C70.9714 37.5185 70.9903 37.5082 71.001 37.5039C71.0061 37.5018 71.0117 37.5 71.0117 37.5H71.0186Z" fill="black" stroke="black"/>
    <path d="M109.5 72.014C109.5 72.0238 109.505 72.0034 109.46 71.9516C109.412 71.896 109.32 71.8214 109.165 71.7474C108.853 71.5984 108.396 71.5017 107.893 71.5032L32.104 71.7316C31.6009 71.7331 31.1439 71.8326 30.8332 71.9835C30.679 72.0584 30.5867 72.1336 30.5389 72.1895C30.4946 72.2416 30.5 72.2619 30.5 72.2521C30.5019 72.2594 30.5097 72.2802 30.5393 72.3145C30.5874 72.3701 30.6801 72.4437 30.8348 72.5177C31.1464 72.6667 31.604 72.7634 32.1071 72.7619L107.896 72.5334C108.399 72.5319 108.856 72.4325 109.167 72.2816C109.321 72.2066 109.413 72.1325 109.461 72.0766C109.484 72.05 109.493 72.0312 109.497 72.0208L109.5 72.014Z" fill="black" stroke="black"/>
</svg>
    