<svg width="116" height="116" viewBox="0 0 116 116" fill="none" xmlns="http://www.w3.org/2000/svg">
    <g clip-path="url(#clip0_7_21)">
    <path d="M57.7916 0C73.1189 0 87.8185 6.0887 98.6563 16.9268C109.494 27.7648 115.583 42.4644 115.583 57.7917C115.583 73.119 109.494 87.819 98.6563 98.657C87.8185 109.495 73.1189 115.583 57.7916 115.583C42.4643 115.583 27.7648 109.495 16.9268 98.657C6.0887 87.819 0 73.119 0 57.7917C0 42.4644 6.0887 27.7648 16.9268 16.9268C27.7648 6.0887 42.4643 0 57.7916 0ZM57.7916 6.0833C44.0777 6.0833 30.9255 11.5312 21.2283 21.2284C11.5311 30.9255 6.0833 44.0778 6.0833 57.7917C6.0833 71.5056 11.5311 84.658 21.2283 94.355C30.9255 104.052 44.0777 109.5 57.7916 109.5C64.5821 109.5 71.306 108.163 77.5796 105.564C83.8531 102.965 89.5533 99.157 94.3553 94.355C99.1563 89.553 102.965 83.853 105.564 77.5796C108.162 71.306 109.5 64.5821 109.5 57.7917C109.5 44.0778 104.052 30.9255 94.3553 21.2284C84.6578 11.5312 71.5055 6.0833 57.7916 6.0833Z" fill="#F4B300"/>
    </g>
    <path d="M58.3967 28C66.6831 28 74.63 31.1935 80.4893 36.8779C86.3483 42.5623 89.6404 50.2721 89.6404 58.3111C89.6404 66.3501 86.3483 74.0598 80.4893 79.7443C74.63 85.4288 66.6831 88.6218 58.3967 88.6218C50.1103 88.6218 42.1634 85.4288 36.304 79.7443C30.4447 74.0598 27.153 66.3501 27.153 58.3111C27.153 50.2721 30.4447 42.5623 36.304 36.8779C42.1634 31.1935 50.1103 28 58.3967 28ZM58.3967 31.1906C50.9826 31.1906 43.8722 34.0479 38.6296 39.1341C33.387 44.2201 30.4418 51.1183 30.4418 58.3111C30.4418 65.5038 33.387 72.402 38.6296 77.4882C43.8722 82.5742 50.9826 85.4315 58.3967 85.4315C62.0678 85.4315 65.703 84.7299 69.0946 83.3666C72.4862 82.0043 75.5679 80.0065 78.1638 77.4882C80.7597 74.9697 82.8188 71.98 84.2237 68.6896C85.6287 65.3992 86.3519 61.8726 86.3519 58.3111C86.3519 51.1183 83.4064 44.2201 78.1638 39.1341C72.9213 34.0479 65.8108 31.1906 58.3967 31.1906Z" fill="#F4B300"/>
    <path d="M86.6576 58.4966C86.6576 73.7411 74.1246 86.0993 58.6644 86.0993C43.2042 86.0993 30.6713 73.7411 30.6713 58.4966C30.6713 43.252 43.2042 30.8938 58.6644 30.8938C74.1246 30.8938 86.6576 43.252 86.6576 58.4966Z" fill="#EAE8E8"/>
    <path d="M42.5108 72.6007C48.4415 72.6007 53.2493 68.3671 53.2493 63.1445C53.2493 57.9221 48.4415 53.6884 42.5108 53.6884C36.5803 53.6884 31.7726 57.9221 31.7726 63.1445C31.7726 68.3671 36.5803 72.6007 42.5108 72.6007Z" fill="black" stroke="black" stroke-width="1.5" stroke-linecap="round" stroke-linejoin="round"/>
    <path d="M71.1466 51.587C77.0772 51.587 81.885 47.3533 81.885 42.1309C81.885 36.9083 77.0772 32.6747 71.1466 32.6747C65.216 32.6747 60.4082 36.9083 60.4082 42.1309C60.4082 47.3533 65.216 51.587 71.1466 51.587Z" fill="black" stroke="black" stroke-width="1.5" stroke-linecap="round" stroke-linejoin="round"/>
    <path d="M55.6357 64.1953C55.6357 59.9925 59.2151 51.587 71.1466 51.587C83.078 51.587 86.6575 59.9925 86.6575 64.1953M27 85.2089C27 81.0062 30.5795 72.6008 42.511 72.6008C54.4425 72.6008 58.022 81.0062 58.022 85.2089" stroke="black" stroke-width="1.5" stroke-linecap="round" stroke-linejoin="round"/>
    <defs>
    <clipPath id="clip0_7_21">
    <rect width="116" height="116" fill="white"/>
    </clipPath>
    </defs>
    </svg>
    