<svg width="116" height="116" viewBox="0 0 116 116" fill="none" xmlns="http://www.w3.org/2000/svg">
<path d="M57.7916 0C73.1189 0 87.8185 6.0887 98.6563 16.9268C109.494 27.7648 115.583 42.4644 115.583 57.7917C115.583 73.119 109.494 87.819 98.6563 98.657C87.8185 109.495 73.1189 115.583 57.7916 115.583C42.4643 115.583 27.7648 109.495 16.9268 98.657C6.0887 87.819 0 73.119 0 57.7917C0 42.4644 6.0887 27.7648 16.9268 16.9268C27.7648 6.0887 42.4643 0 57.7916 0ZM57.7916 6.0833C44.0777 6.0833 30.9255 11.5312 21.2283 21.2284C11.5311 30.9255 6.0833 44.0778 6.0833 57.7917C6.0833 71.5056 11.5311 84.658 21.2283 94.355C30.9255 104.052 44.0777 109.5 57.7916 109.5C64.5821 109.5 71.306 108.163 77.5796 105.564C83.8531 102.965 89.5533 99.157 94.3553 94.355C99.1563 89.553 102.965 83.853 105.564 77.5796C108.162 71.306 109.5 64.5821 109.5 57.7917C109.5 44.0778 104.052 30.9255 94.3553 21.2284C84.6578 11.5312 71.5055 6.0833 57.7916 6.0833Z" fill="#F4B300"/>
<path d="M75.8333 23.75V73.75H29.8333V23.75H75.8333ZM72 27.3214H33.6666V70.1786H72V27.3214ZM41.3333 48.75H37.5V45.1786H41.3333V48.75ZM68.1666 48.75H45.1666V45.1786H68.1666V48.75ZM41.3333 59.4643H37.5V55.8929H41.3333V59.4643ZM68.1666 59.4643H45.1666V55.8929H68.1666V59.4643ZM41.3333 38.0357H37.5V34.4643H41.3333V38.0357ZM68.1666 38.0357H45.1666V34.4643H68.1666V38.0357Z" fill="black"/>
<g clip-path="url(#clip0_41_30)">
<rect width="39.0358" height="39.0358" transform="translate(99.8668 93.516) rotate(-179.96)" fill="white"/>
<path d="M62.0993 90.0617L62.12 60.0403L99.6468 60.0662L99.626 90.0876L62.0993 90.0617ZM65.8584 80.6826L95.8799 80.7033L95.8916 63.8163L65.8701 63.7955L65.8584 80.6826ZM76.4503 77.2611L76.4503 69.3142L83.9557 72.8462L76.4503 77.2611ZM65.8545 86.3116L95.876 86.3323L95.8773 84.456L65.8558 84.4353L65.8545 86.3116Z" fill="#F6B417"/>
</g>
<defs>
<clipPath id="clip0_41_30">
<rect width="39.0358" height="39.0358" fill="white" transform="translate(99.8668 93.516) rotate(-179.96)"/>
</clipPath>
</defs>
</svg>
